<svg width="160" height="328" viewBox="0 0 160 328" fill="none" xmlns="http://www.w3.org/2000/svg">
<path d="M1.04723 96.2866C-1.25785 92.2226 0.3107 85.8486 5.07929 81.0797C10.4945 75.6663 17.9822 74.3757 21.8052 78.1972C21.8097 78.2022 21.8134 78.2079 21.8196 78.213C21.0545 80.4385 18.618 85.1739 11.3145 87.734C4.62422 90.0805 2.04343 93.8112 1.04723 96.2866ZM22.8805 79.5884C22.301 80.9399 21.2924 82.7062 19.5547 84.4434C17.808 86.1905 15.3254 87.9064 11.8089 89.1396C4.67193 91.6418 2.67784 95.738 2.12147 97.723C2.14775 97.7495 2.17035 97.777 2.1959 97.8027C6.0185 101.624 13.5065 100.334 18.9214 94.9195C23.7396 90.1022 25.2891 83.6456 22.8805 79.5884Z" fill="#505050"/>
<path d="M1.04723 172.287C-1.25785 168.223 0.3107 161.849 5.07929 157.08C10.4945 151.666 17.9822 150.376 21.8052 154.197C21.8097 154.202 21.8134 154.208 21.8196 154.213C21.0545 156.438 18.618 161.174 11.3145 163.734C4.62422 166.081 2.04343 169.811 1.04723 172.287ZM22.8805 155.588C22.301 156.94 21.2924 158.706 19.5547 160.443C17.808 162.19 15.3254 163.906 11.8089 165.14C4.67193 167.642 2.67784 171.738 2.12147 173.723C2.14775 173.749 2.17035 173.777 2.1959 173.803C6.0185 177.624 13.5065 176.334 18.9214 170.92C23.7396 166.102 25.2891 159.646 22.8805 155.588Z" fill="#505050"/>
<path d="M1.04723 248.287C-1.25785 244.223 0.3107 237.849 5.07929 233.08C10.4945 227.666 17.9822 226.376 21.8052 230.197C21.8097 230.202 21.8134 230.208 21.8196 230.213C21.0545 232.438 18.618 237.174 11.3145 239.734C4.62422 242.081 2.04343 245.811 1.04723 248.287ZM22.8805 231.588C22.301 232.94 21.2924 234.706 19.5547 236.443C17.808 238.19 15.3254 239.906 11.8089 241.14C4.67193 243.642 2.67784 247.738 2.12147 249.723C2.14775 249.749 2.17035 249.777 2.1959 249.803C6.0185 253.624 13.5065 252.334 18.9214 246.92C23.7396 242.102 25.2891 235.646 22.8805 231.588Z" fill="#505050"/>
<path d="M1.04723 324.287C-1.25785 320.223 0.3107 313.849 5.07929 309.08C10.4945 303.666 17.9822 302.376 21.8052 306.197C21.8097 306.202 21.8134 306.208 21.8196 306.213C21.0545 308.438 18.618 313.174 11.3145 315.734C4.62422 318.081 2.04343 321.811 1.04723 324.287ZM22.8805 307.588C22.301 308.94 21.2924 310.706 19.5547 312.443C17.808 314.19 15.3254 315.906 11.8089 317.14C4.67193 319.642 2.67784 323.738 2.12147 325.723C2.14775 325.749 2.17035 325.777 2.1959 325.803C6.0185 329.624 13.5065 328.334 18.9214 322.92C23.7396 318.102 25.2891 311.646 22.8805 307.588Z" fill="#505050"/>
<path d="M35.0472 96.2866C32.7422 92.2226 34.3107 85.8486 39.0793 81.0797C44.4945 75.6663 51.9822 74.3757 55.8052 78.1972C55.8097 78.2022 55.8134 78.2079 55.8196 78.213C55.0545 80.4385 52.618 85.1739 45.3145 87.734C38.6242 90.0805 36.0434 93.8112 35.0472 96.2866ZM56.8805 79.5884C56.301 80.9399 55.2924 82.7062 53.5547 84.4434C51.808 86.1905 49.3254 87.9064 45.8089 89.1396C38.6719 91.6418 36.6778 95.738 36.1215 97.723C36.1478 97.7495 36.1704 97.777 36.1959 97.8027C40.0185 101.624 47.5065 100.334 52.9214 94.9195C57.7396 90.1022 59.2891 83.6456 56.8805 79.5884Z" fill="#505050"/>
<path d="M35.0472 172.287C32.7422 168.223 34.3107 161.849 39.0793 157.08C44.4945 151.666 51.9822 150.376 55.8052 154.197C55.8097 154.202 55.8134 154.208 55.8196 154.213C55.0545 156.438 52.618 161.174 45.3145 163.734C38.6242 166.081 36.0434 169.811 35.0472 172.287ZM56.8805 155.588C56.301 156.94 55.2924 158.706 53.5547 160.443C51.808 162.19 49.3254 163.906 45.8089 165.14C38.6719 167.642 36.6778 171.738 36.1215 173.723C36.1478 173.749 36.1704 173.777 36.1959 173.803C40.0185 177.624 47.5065 176.334 52.9214 170.92C57.7396 166.102 59.2891 159.646 56.8805 155.588Z" fill="#505050"/>
<path d="M35.0472 248.287C32.7422 244.223 34.3107 237.849 39.0793 233.08C44.4945 227.666 51.9822 226.376 55.8052 230.197C55.8097 230.202 55.8134 230.208 55.8196 230.213C55.0545 232.438 52.618 237.174 45.3145 239.734C38.6242 242.081 36.0434 245.811 35.0472 248.287ZM56.8805 231.588C56.301 232.94 55.2924 234.706 53.5547 236.443C51.808 238.19 49.3254 239.906 45.8089 241.14C38.6719 243.642 36.6778 247.738 36.1215 249.723C36.1478 249.749 36.1704 249.777 36.1959 249.803C40.0185 253.624 47.5065 252.334 52.9214 246.92C57.7396 242.102 59.2891 235.646 56.8805 231.588Z" fill="#505050"/>
<path d="M69.0472 96.2866C66.7422 92.2226 68.3107 85.8486 73.0793 81.0797C78.4945 75.6663 85.9822 74.3757 89.8052 78.1972C89.8097 78.2022 89.8134 78.2079 89.8196 78.213C89.0545 80.4385 86.618 85.1739 79.3145 87.734C72.6242 90.0805 70.0434 93.8112 69.0472 96.2866ZM90.8805 79.5884C90.301 80.9399 89.2924 82.7062 87.5547 84.4434C85.808 86.1905 83.3254 87.9064 79.8089 89.1396C72.6719 91.6418 70.6778 95.738 70.1215 97.723C70.1478 97.7495 70.1704 97.777 70.1959 97.8027C74.0185 101.624 81.5065 100.334 86.9214 94.9195C91.7396 90.1022 93.2891 83.6456 90.8805 79.5884Z" fill="#505050"/>
<path d="M69.0472 172.287C66.7422 168.223 68.3107 161.849 73.0793 157.08C78.4945 151.666 85.9822 150.376 89.8052 154.197C89.8097 154.202 89.8134 154.208 89.8196 154.213C89.0545 156.438 86.618 161.174 79.3145 163.734C72.6242 166.081 70.0434 169.811 69.0472 172.287ZM90.8805 155.588C90.301 156.94 89.2924 158.706 87.5547 160.443C85.808 162.19 83.3254 163.906 79.8089 165.14C72.6719 167.642 70.6778 171.738 70.1215 173.723C70.1478 173.749 70.1704 173.777 70.1959 173.803C74.0185 177.624 81.5065 176.334 86.9214 170.92C91.7396 166.102 93.2891 159.646 90.8805 155.588Z" fill="#505050"/>
<path d="M103.047 96.2866C100.742 92.2226 102.311 85.8486 107.079 81.0797C112.495 75.6663 119.982 74.3757 123.805 78.1972C123.81 78.2022 123.813 78.2079 123.82 78.213C123.054 80.4385 120.618 85.1739 113.315 87.734C106.624 90.0805 104.043 93.8112 103.047 96.2866ZM124.88 79.5884C124.301 80.9399 123.292 82.7062 121.555 84.4434C119.808 86.1905 117.325 87.9064 113.809 89.1396C106.672 91.6418 104.678 95.738 104.121 97.723C104.148 97.7495 104.17 97.777 104.196 97.8027C108.019 101.624 115.507 100.334 120.921 94.9195C125.74 90.1022 127.289 83.6456 124.88 79.5884Z" fill="#505050"/>
<path d="M1.04723 20.2866C-1.25785 16.2226 0.3107 9.84864 5.07929 5.0797C10.4945 -0.333678 17.9822 -1.62425 21.8052 2.1972C21.8097 2.2022 21.8134 2.20787 21.8196 2.21295C21.0545 4.4385 18.618 9.17387 11.3145 11.734C4.62422 14.0805 2.04343 17.8112 1.04723 20.2866ZM22.8805 3.5884C22.301 4.93992 21.2924 6.70615 19.5547 8.44338C17.808 10.1905 15.3254 11.9064 11.8089 13.1396C4.67193 15.6418 2.67784 19.738 2.12147 21.723C2.14775 21.7495 2.17035 21.777 2.1959 21.8027C6.0185 25.6243 13.5065 24.3338 18.9214 18.9195C23.7396 14.1022 25.2891 7.64562 22.8805 3.5884Z" fill="#505050"/>
<path d="M35.0472 20.2866C32.7422 16.2226 34.3107 9.84864 39.0793 5.0797C44.4945 -0.333678 51.9822 -1.62425 55.8052 2.1972C55.8097 2.2022 55.8134 2.20787 55.8196 2.21295C55.0545 4.4385 52.618 9.17387 45.3145 11.734C38.6242 14.0805 36.0434 17.8112 35.0472 20.2866ZM56.8805 3.5884C56.301 4.93992 55.2924 6.70615 53.5547 8.44338C51.808 10.1905 49.3254 11.9064 45.8089 13.1396C38.6719 15.6418 36.6778 19.738 36.1215 21.723C36.1478 21.7495 36.1704 21.777 36.1959 21.8027C40.0185 25.6243 47.5065 24.3338 52.9214 18.9195C57.7396 14.1022 59.2891 7.64562 56.8805 3.5884Z" fill="#505050"/>
<path d="M69.0472 20.2866C66.7422 16.2226 68.3107 9.84864 73.0793 5.0797C78.4945 -0.333678 85.9822 -1.62425 89.8052 2.1972C89.8097 2.2022 89.8134 2.20787 89.8196 2.21295C89.0545 4.4385 86.618 9.17387 79.3145 11.734C72.6242 14.0805 70.0434 17.8112 69.0472 20.2866ZM90.8805 3.5884C90.301 4.93992 89.2924 6.70615 87.5547 8.44338C85.808 10.1905 83.3254 11.9064 79.8089 13.1396C72.6719 15.6418 70.6778 19.738 70.1215 21.723C70.1478 21.7495 70.1704 21.777 70.1959 21.8027C74.0185 25.6243 81.5065 24.3338 86.9214 18.9195C91.7396 14.1022 93.2891 7.64562 90.8805 3.5884Z" fill="#505050"/>
<path d="M103.047 20.2866C100.742 16.2226 102.311 9.84864 107.079 5.0797C112.495 -0.333678 119.982 -1.62425 123.805 2.1972C123.81 2.2022 123.813 2.20787 123.82 2.21295C123.054 4.4385 120.618 9.17387 113.315 11.734C106.624 14.0805 104.043 17.8112 103.047 20.2866ZM124.88 3.5884C124.301 4.93992 123.292 6.70615 121.555 8.44338C119.808 10.1905 117.325 11.9064 113.809 13.1396C106.672 15.6418 104.678 19.738 104.121 21.723C104.148 21.7495 104.17 21.777 104.196 21.8027C108.019 25.6243 115.507 24.3338 120.921 18.9195C125.74 14.1022 127.289 7.64562 124.88 3.5884Z" fill="#505050"/>
<path d="M137.047 20.2866C134.742 16.2226 136.311 9.84864 141.079 5.0797C146.495 -0.333678 153.982 -1.62425 157.805 2.1972C157.81 2.2022 157.813 2.20787 157.82 2.21295C157.054 4.4385 154.618 9.17387 147.315 11.734C140.624 14.0805 138.043 17.8112 137.047 20.2866ZM158.88 3.5884C158.301 4.93992 157.292 6.70615 155.555 8.44338C153.808 10.1905 151.325 11.9064 147.809 13.1396C140.672 15.6418 138.678 19.738 138.121 21.723C138.148 21.7495 138.17 21.777 138.196 21.8027C142.019 25.6243 149.507 24.3338 154.921 18.9195C159.74 14.1022 161.289 7.64562 158.88 3.5884Z" fill="#505050"/>
</svg>
