<svg width="593" height="1304" viewBox="0 0 593 1304" fill="none" xmlns="http://www.w3.org/2000/svg">
<path fill-rule="evenodd" clip-rule="evenodd" d="M846.646 -279.886C968.951 -247.8 1108.59 -303.543 1211.03 -217.665C1328.09 -119.522 1441.59 28.9286 1443.01 220.09C1444.41 409.81 1297.73 553.54 1218 723.616C1140.5 888.959 1107.56 1096.9 982.984 1201.45C853.482 1310.13 692.386 1324.33 553.766 1281.07C421.909 1239.91 340.168 1094.53 247.04 971.767C149.912 843.732 -8.0201 743.387 0.737125 552.062C9.59011 358.645 204.937 261.983 287.364 90.7812C365.257 -71.0035 336.279 -327.61 465.498 -413.251C594.784 -498.936 713.71 -314.761 846.646 -279.886Z" fill="#F9B300"/>
</svg>
